<svg width="48" height="48" viewBox="0 0 48 48" fill="none" xmlns="http://www.w3.org/2000/svg">
<path d="M24 0.399994C10.748 0.399994 0 11.146 0 24.4C0 35.004 6.876 44 16.414 47.174C17.612 47.396 18 46.652 18 46.02V41.552C11.324 43.004 9.934 38.72 9.934 38.72C8.842 35.946 7.268 35.208 7.268 35.208C5.09 33.718 7.434 33.75 7.434 33.75C9.844 33.918 11.112 36.224 11.112 36.224C13.252 39.892 16.726 38.832 18.096 38.218C18.31 36.668 18.932 35.608 19.62 35.01C14.29 34.4 8.686 32.342 8.686 23.148C8.686 20.526 9.624 18.386 11.158 16.706C10.91 16.1 10.088 13.658 11.392 10.354C11.392 10.354 13.408 9.70999 17.994 12.814C19.908 12.282 21.96 12.016 24 12.006C26.04 12.016 28.094 12.282 30.012 12.814C34.594 9.70999 36.606 10.354 36.606 10.354C37.912 13.66 37.09 16.102 36.842 16.706C38.382 18.386 39.312 20.528 39.312 23.148C39.312 32.366 33.698 34.396 28.354 34.99C29.214 35.734 30 37.194 30 39.434V46.02C30 46.658 30.384 47.408 31.602 47.172C41.132 43.994 48 35 48 24.4C48 11.146 37.254 0.399994 24 0.399994Z" fill="white"/>
</svg>
