<svg width="46" height="48" viewBox="0 0 46 48" fill="none" xmlns="http://www.w3.org/2000/svg">
<path d="M44.8644 10.6269C44.1706 5.46963 39.6757 1.40497 34.347 0.617601C33.4479 0.484528 30.0421 0 22.1519 0H22.0929C14.2005 0 12.5074 0.484528 11.6085 0.617601C6.42824 1.3832 1.69745 5.03531 0.549809 10.2537C-0.00228763 12.8237 -0.0611292 15.6731 0.0415385 18.2866C0.187469 22.0347 0.215998 25.7761 0.556472 29.5088C0.791814 31.9884 1.20229 34.4482 1.78482 36.8698C2.87579 41.3419 7.29237 45.0638 11.6192 46.5823C16.2519 48.1657 21.2338 48.4286 26.0074 47.3415C26.5312 47.2196 27.0501 47.0777 27.563 46.9161C28.7238 46.5475 30.0834 46.1352 31.0828 45.4106C31.0965 45.4006 31.1077 45.3875 31.1155 45.3724C31.1236 45.3573 31.1281 45.3406 31.1286 45.3236V41.7064C31.1283 41.6905 31.1245 41.6747 31.1175 41.6604C31.1105 41.646 31.1003 41.6335 31.0877 41.6237C31.0752 41.6139 31.0605 41.607 31.0449 41.6037C31.0294 41.6002 31.0133 41.6002 30.9977 41.6037C27.9393 42.3342 24.8053 42.7004 21.6609 42.6947C16.2493 42.6947 14.7941 40.127 14.3774 39.058C14.0423 38.1342 13.8295 37.1704 13.7444 36.1914C13.7431 36.1666 13.7507 36.1421 13.7658 36.1223C13.7809 36.1025 13.8024 36.0887 13.8267 36.0833C13.8429 36.08 13.8594 36.0803 13.8753 36.0844C16.8828 36.8099 19.9657 37.176 23.0595 37.1752C23.8036 37.1752 24.5454 37.1752 25.2895 37.1554C28.401 37.0683 31.6807 36.9089 34.7419 36.311C34.8184 36.296 34.8949 36.2829 34.9602 36.2634C39.7889 35.3359 44.3844 32.4256 44.8513 25.0563C44.8686 24.766 44.9124 22.0171 44.9124 21.7162C44.9144 20.693 45.2418 14.4578 44.8644 10.6269Z" fill="url(#paint0_linear_1009_173)"/>
<path d="M37.2142 16.4213V29.2341H32.1367V16.7987C32.1367 14.1807 31.0458 12.8455 28.8266 12.8455C26.387 12.8455 25.165 14.4252 25.165 17.5447V24.3515H20.1182V17.5447C20.1182 14.4252 18.8941 12.8455 16.4545 12.8455C14.2484 12.8455 13.1466 14.1807 13.1466 16.7987V29.2341H8.07129V16.4213C8.07129 13.8034 8.73976 11.7235 10.0764 10.1817C11.4555 8.64381 13.2644 7.854 15.5097 7.854C18.1084 7.854 20.0722 8.85318 21.3815 10.8493L22.645 12.9699L23.9105 10.8493C25.2197 8.85318 27.1835 7.854 29.7778 7.854C32.0209 7.854 33.8298 8.64381 35.2133 10.1817C36.5488 11.7221 37.2156 13.802 37.2142 16.4213Z" fill="white"/>
<defs>
<linearGradient id="paint0_linear_1009_173" x1="22.0893" y1="0.000281538" x2="22.0893" y2="47.5754" gradientUnits="userSpaceOnUse">
<stop stop-color="#6364FF"/>
<stop offset="1" stop-color="#563ACC"/>
</linearGradient>
</defs>
</svg>
