<svg width="48" height="40" viewBox="0 0 48 40" fill="none" xmlns="http://www.w3.org/2000/svg">
<path d="M48 5.01799C46.234 5.80199 44.336 6.32999 42.344 6.56799C44.378 5.34999 45.94 3.41999 46.674 1.11999C44.772 2.24799 42.664 3.06799 40.42 3.50999C38.626 1.59599 36.064 0.399994 33.232 0.399994C26.874 0.399994 22.202 6.33199 23.638 12.49C15.456 12.08 8.2 8.15999 3.342 2.20199C0.762 6.62799 2.004 12.418 6.388 15.35C4.776 15.298 3.256 14.856 1.93 14.118C1.822 18.68 5.092 22.948 9.828 23.898C8.442 24.274 6.924 24.362 5.38 24.066C6.632 27.978 10.268 30.824 14.58 30.904C10.44 34.15 5.224 35.6 0 34.984C4.358 37.778 9.536 39.408 15.096 39.408C33.38 39.408 43.71 23.966 43.086 10.116C45.01 8.72599 46.68 6.99199 48 5.01799V5.01799Z" fill="#00A2F3"/>
</svg>
